<svg width="66" height="58" viewBox="0 0 66 58" fill="none" xmlns="http://www.w3.org/2000/svg">
<path d="M1 1H12.6712L21.4149 35.0505" stroke="white" stroke-width="2" stroke-linecap="round" stroke-linejoin="round"/>
<path d="M14.6357 8.68446H64.1901L55.2152 35.0505H20.7795C19.717 35.0505 18.6981 35.4726 17.9468 36.2238C17.1956 36.9751 16.7736 37.994 16.7736 39.0565V39.0565C16.7787 40.1156 17.2029 41.1296 17.9536 41.8767C18.7044 42.6238 19.7204 43.0432 20.7795 43.0432H55.9856" stroke="white" stroke-width="2" stroke-linecap="round" stroke-linejoin="round"/>
<path d="M25.0742 56.101C27.6163 56.101 29.6772 54.0401 29.6772 51.498C29.6772 48.9558 27.6163 46.895 25.0742 46.895C22.532 46.895 20.4712 48.9558 20.4712 51.498C20.4712 54.0401 22.532 56.101 25.0742 56.101Z" stroke="white" stroke-width="2" stroke-linecap="round" stroke-linejoin="round"/>
<path d="M52.0759 56.101C54.618 56.101 56.6789 54.0401 56.6789 51.498C56.6789 48.9558 54.618 46.895 52.0759 46.895C49.5337 46.895 47.4729 48.9558 47.4729 51.498C47.4729 54.0401 49.5337 56.101 52.0759 56.101Z" stroke="white" stroke-width="2" stroke-linecap="round" stroke-linejoin="round"/>
</svg>
