<svg width="375" height="812" viewBox="0 0 375 812" fill="none" xmlns="http://www.w3.org/2000/svg">
<path d="M187.5 -10C187.5 -10 -69 411.624 -69 568.562C-69 635.966 -41.9748 700.609 6.12798 748.27C54.2308 795.932 119.472 822.707 187.5 822.707C255.528 822.707 320.769 795.932 368.872 748.27C416.975 700.609 444 635.966 444 568.562C441.636 411.624 187.5 -10 187.5 -10ZM261.968 302.704C300.139 343.353 328.902 391.762 346.255 444.555C363.607 497.349 369.132 553.256 362.44 608.382C248.966 566.219 233.597 411.624 259.602 302.704H261.968Z" fill="white" fill-opacity="0.1"/>
</svg>
